<?xml version="1.0" encoding="UTF-8" standalone="no"?>
<svg width="60px" height="56px" viewBox="0 0 60 56" version="1.1" xmlns="http://www.w3.org/2000/svg" xmlns:xlink="http://www.w3.org/1999/xlink">
    <!-- Generator: Sketch 3.8.3 (29802) - http://www.bohemiancoding.com/sketch -->
    <title>26 -Graph- (Webby)</title>
    <desc>Created with Sketch.</desc>
    <defs></defs>
    <g id="Page-1" stroke="none" stroke-width="1" fill="none" fill-rule="evenodd">
        <g id="Icons" transform="translate(-720.000000, -532.000000)">
            <g id="26--Graph--(Webby)" transform="translate(721.000000, 533.000000)">
                <path d="M41,54 L17,54 C17,51.791 18.791,50 21,50 L37,50 C39.209,50 41,51.791 41,54" id="Fill-377" fill="#C6E3F8"></path>
                <path d="M41,54 L17,54 C17,51.791 18.791,50 21,50 L37,50 C39.209,50 41,51.791 41,54 L41,54 Z" id="Stroke-378" stroke="#0F81E0" stroke-width="2" stroke-linecap="round" stroke-linejoin="round"></path>
                <polygon id="Fill-379" fill="#C6E3F8" points="36 50 22 50 24 42 34 42"></polygon>
                <polygon id="Stroke-380" stroke="#0F81E0" stroke-width="2" stroke-linecap="round" stroke-linejoin="round" points="36 50 22 50 24 42 34 42"></polygon>
                <path d="M58,34 L0,34 L0,3.5 C0,1.567 1.567,0 3.5,0 L54.5,0 C56.433,0 58,1.567 58,3.5 L58,34 Z" id="Fill-381" fill="#FFFFFF"></path>
                <path d="M58,34 L0,34 L0,3.5 C0,1.567 1.567,0 3.5,0 L54.5,0 C56.433,0 58,1.567 58,3.5 L58,34 L58,34 Z" id="Stroke-382" stroke="#0F81E0" stroke-width="2" stroke-linecap="round" stroke-linejoin="round"></path>
                <path d="M54.5,42 L3.5,42 C1.567,42 0,40.433 0,38.5 L0,34 L58,34 L58,38.5 C58,40.433 56.433,42 54.5,42" id="Fill-383" fill="#FFFFFF"></path>
                <path d="M54.5,42 L3.5,42 C1.567,42 0,40.433 0,38.5 L0,34 L58,34 L58,38.5 C58,40.433 56.433,42 54.5,42 L54.5,42 Z" id="Stroke-384" stroke="#0F81E0" stroke-width="2" stroke-linecap="round" stroke-linejoin="round"></path>
                <path d="M33,30 L33,27" id="Stroke-499" stroke="#1081E0" stroke-width="2" stroke-linecap="round"></path>
                <path d="M37,30 L37,23" id="Stroke-500" stroke="#1081E0" stroke-width="2" stroke-linecap="round"></path>
                <path d="M41,30 L41,25" id="Stroke-501" stroke="#1081E0" stroke-width="2" stroke-linecap="round"></path>
                <path d="M45,30 L45,18" id="Stroke-502" stroke="#1081E0" stroke-width="2" stroke-linecap="round"></path>
                <path d="M49,30 L49,22" id="Stroke-503" stroke="#1081E0" stroke-width="2" stroke-linecap="round"></path>
                <path d="M27,16.5 C27,22.299 22.299,27 16.5,27 C10.701,27 6,22.299 6,16.5 C6,10.701 10.701,6 16.5,6 C22.299,6 27,10.701 27,16.5" id="Fill-504" fill="#C6E3F8"></path>
                <path d="M27,16.5 C27,22.299 22.299,27 16.5,27 C10.701,27 6,22.299 6,16.5 C6,10.701 10.701,6 16.5,6 C22.299,6 27,10.701 27,16.5 L27,16.5 Z" id="Stroke-505" stroke="#0F81E0" stroke-width="2" stroke-linecap="round" stroke-linejoin="round"></path>
                <path d="M16.0137,6.011 C16.0087,6.016 16.0057,6.02 15.9997,6.025 L15.9997,16.963 C15.9997,16.984 16.0167,17 16.0367,17 L26.9747,17 C26.9797,16.995 26.9837,16.992 26.9887,16.986 C27.2677,10.803 22.1967,5.732 16.0137,6.011 L16.0137,6.011 Z" id="Stroke-506" stroke="#1081E0" stroke-width="2" stroke-linecap="round"></path>
                <path d="M16,17 L23.408,24.408" id="Stroke-507" stroke="#1081E0" stroke-width="2" stroke-linecap="round"></path>
                <path d="M36,10 L44,10" id="Stroke-508" stroke="#1081E0" stroke-width="2" stroke-linecap="round"></path>
                <path id="Stroke-509" stroke="#1081E0" stroke-width="2" stroke-linecap="round"></path>
                <path d="M46,5 L49,5" id="Stroke-510" stroke="#1081E0" stroke-width="2" stroke-linecap="round"></path>
                <path d="M36,5 L38,5" id="Stroke-511" stroke="#1081E0" stroke-width="2" stroke-linecap="round"></path>
                <path id="Stroke-512" stroke="#1081E0" stroke-width="2" stroke-linecap="round"></path>
            </g>
        </g>
    </g>
</svg>