<?xml version="1.0" encoding="UTF-8" standalone="no"?>
<svg width="60px" height="60px" viewBox="0 0 60 60" version="1.1" xmlns="http://www.w3.org/2000/svg" xmlns:xlink="http://www.w3.org/1999/xlink">
    <!-- Generator: Sketch 3.8.2 (29753) - http://www.bohemiancoding.com/sketch -->
    <title>74 -Laboratory Sample- (Webby)</title>
    <desc>Created with Sketch.</desc>
    <defs></defs>
    <g id="Page-1" stroke="none" stroke-width="1" fill="none" fill-rule="evenodd">
        <g id="Icons" transform="translate(-480.000000, -1220.000000)">
            <g id="74--Laboratory-Sample--(Webby)" transform="translate(481.000000, 1220.000000)">
                <polygon id="Fill-27" fill="#FFFFFF" points="17 22 31 22 31 16 17 16"></polygon>
                <polygon id="Stroke-29" stroke="#0096E6" stroke-width="2" stroke-linecap="round" stroke-linejoin="round" points="17 22 31 22 31 16 17 16"></polygon>
                <path d="M28,34 L28,26 L29,26 L29,22 L19,22 L19,26 L20,26 L20,34 L19,34 L19,44 C19,46.761 21.239,49 24,49 C26.761,49 29,46.761 29,44 L29,34 L28,34 Z" id="Fill-30" fill="#FFFFFF"></path>
                <path d="M28,34 L28,26 L29,26 L29,22 L19,22 L19,26 L20,26 L20,34 L19,34 L19,44 C19,46.761 21.239,49 24,49 C26.761,49 29,46.761 29,44 L29,34 L28,34 L28,34 Z" id="Stroke-31" stroke="#0096E6" stroke-width="2" stroke-linecap="round" stroke-linejoin="round"></path>
                <path d="M27.2479,10.7573 C26.7879,11.2153 27.1129,12.0003 27.7609,12.0003 L31.9999,12.0003 C33.3469,12.0253 34.6309,12.5703 35.5829,13.5233 L50.8279,28.7673 C51.1369,29.0773 51.6389,29.0773 51.9479,28.7673 L57.4379,23.2773 C58.1599,22.5553 58.1599,21.3853 57.4379,20.6643 L42.1919,5.4173 L39.9839,3.2103 L38.0069,1.2333 C37.6769,0.9033 37.1419,0.9033 36.8109,1.2333 L27.2479,10.7573 Z" id="Fill-32" fill="#FFFFFF"></path>
                <path d="M27.2479,10.7573 C26.7879,11.2153 27.1129,12.0003 27.7609,12.0003 L31.9999,12.0003 C33.3469,12.0253 34.6309,12.5703 35.5829,13.5233 L50.8279,28.7673 C51.1369,29.0773 51.6389,29.0773 51.9479,28.7673 L57.4379,23.2773 C58.1599,22.5553 58.1599,21.3853 57.4379,20.6643 L42.1919,5.4173 L39.9839,3.2103 L38.0069,1.2333 C37.6769,0.9033 37.1419,0.9033 36.8109,1.2333 L27.2479,10.7573 L27.2479,10.7573 Z" id="Stroke-33" stroke="#0096E6" stroke-width="2" stroke-linecap="round" stroke-linejoin="round"></path>
                <path d="M19,39 L19,44 C19,46.761 21.239,49 24,49 C26.761,49 29,46.761 29,44 L29,39 L19,39 Z" id="Fill-1089" fill="#D0E8F9"></path>
                <path d="M19,39 L19,44 C19,46.761 21.239,49 24,49 C26.761,49 29,46.761 29,44 L29,39 L19,39 L19,39 Z" id="Stroke-1090" stroke="#0096E6" stroke-width="2" stroke-linecap="round" stroke-linejoin="round"></path>
                <polygon id="Fill-1091" fill="#D0E8F9" points="0 34 6 34 6 26 0 26"></polygon>
                <polygon id="Stroke-1092" stroke="#0096E6" stroke-width="2" stroke-linecap="round" stroke-linejoin="round" points="0 34 6 34 6 26 0 26"></polygon>
                <polygon id="Fill-1093" fill="#FFFFFF" points="1 26 5 26 5 22 1 22"></polygon>
                <polygon id="Stroke-1094" stroke="#0096E6" stroke-width="2" stroke-linecap="round" stroke-linejoin="round" points="1 26 5 26 5 22 1 22"></polygon>
                <polygon id="Fill-1095" fill="#FFFFFF" points="1 53 5 53 5 34 1 34"></polygon>
                <polygon id="Stroke-1096" stroke="#0096E6" stroke-width="2" stroke-linecap="round" stroke-linejoin="round" points="1 53 5 53 5 34 1 34"></polygon>
                <polygon id="Fill-1097" fill="#FFFFFF" points="6 32 16 32 16 28 6 28"></polygon>
                <polygon id="Stroke-1098" stroke="#0096E6" stroke-width="2" stroke-linecap="round" stroke-linejoin="round" points="6 32 16 32 16 28 6 28"></polygon>
                <polygon id="Fill-1099" fill="#D0E8F9" points="16 34 20 34 20 26 16 26"></polygon>
                <polygon id="Stroke-1100" stroke="#0096E6" stroke-width="2" stroke-linecap="round" stroke-linejoin="round" points="16 34 20 34 20 26 16 26"></polygon>
                <polygon id="Fill-1101" fill="#D0E8F9" points="28 34 32 34 32 26 28 26"></polygon>
                <polygon id="Stroke-1102" stroke="#0096E6" stroke-width="2" stroke-linecap="round" stroke-linejoin="round" points="28 34 32 34 32 26 28 26"></polygon>
                <polygon id="Fill-1103" fill="#FFFFFF" points="58 59 35 59 33 57 26 57 24 59 0 59 0 53 58 53"></polygon>
                <polygon id="Stroke-1104" stroke="#0096E6" stroke-width="2" stroke-linecap="round" stroke-linejoin="round" points="58 59 35 59 33 57 26 57 24 59 0 59 0 53 58 53"></polygon>
                <path d="M50.8274,28.7673 C51.1374,29.0773 51.6384,29.0773 51.9484,28.7673 L57.4384,23.2773 C58.1604,22.5553 58.1604,21.3853 57.4384,20.6643 L53.7744,17.0003 L39.0604,17.0003 L50.8274,28.7673 Z" id="Fill-1278" fill="#D0E8F9"></path>
                <path d="M50.8274,28.7673 C51.1374,29.0773 51.6384,29.0773 51.9484,28.7673 L57.4384,23.2773 C58.1604,22.5553 58.1604,21.3853 57.4384,20.6643 L53.7744,17.0003 L39.0604,17.0003 L50.8274,28.7673 L50.8274,28.7673 Z" id="Stroke-1279" stroke="#0096E6" stroke-width="2" stroke-linecap="round" stroke-linejoin="round"></path>
            </g>
        </g>
    </g>
</svg>