<?xml version="1.0" encoding="UTF-8" standalone="no"?>
<svg width="60px" height="54px" viewBox="0 0 60 54" version="1.1" xmlns="http://www.w3.org/2000/svg" xmlns:xlink="http://www.w3.org/1999/xlink">
    <!-- Generator: Sketch 3.8.2 (29753) - http://www.bohemiancoding.com/sketch -->
    <title>14 -Science Presentation- (Webby)</title>
    <desc>Created with Sketch.</desc>
    <defs></defs>
    <g id="Page-1" stroke="none" stroke-width="1" fill="none" fill-rule="evenodd">
        <g id="Icons" transform="translate(-480.000000, -503.000000)">
            <g id="14--Science-Presentation--(Webby)" transform="translate(481.000000, 504.000000)">
                <polygon id="Fill-1199" fill="#FFFFFF" points="2 42 56 42 56 6 2 6"></polygon>
                <polygon id="Stroke-1200" stroke="#0096E6" stroke-width="2" points="2 42 56 42 56 6 2 6"></polygon>
                <path d="M32,49 C32,47.343 30.657,46 29,46 C27.343,46 26,47.343 26,49 C26,50.657 27.343,52 29,52 C30.657,52 32,50.657 32,49" id="Fill-1201" fill="#D0E8F9"></path>
                <path d="M32,49 C32,47.343 30.657,46 29,46 C27.343,46 26,47.343 26,49 C26,50.657 27.343,52 29,52 C30.657,52 32,50.657 32,49 L32,49 Z" id="Stroke-1202" stroke="#0096E6" stroke-width="2" stroke-linecap="round" stroke-linejoin="round"></path>
                <path d="M56,6 L2,6 C0.895,6 0,5.105 0,4 L0,2 C0,0.895 0.895,0 2,0 L56,0 C57.105,0 58,0.895 58,2 L58,4 C58,5.105 57.105,6 56,6" id="Fill-1203" fill="#D0E8F9"></path>
                <path d="M56,6 L2,6 C0.895,6 0,5.105 0,4 L0,2 C0,0.895 0.895,0 2,0 L56,0 C57.105,0 58,0.895 58,2 L58,4 C58,5.105 57.105,6 56,6 L56,6 Z" id="Stroke-1204" stroke="#0096E6" stroke-width="2" stroke-linecap="round" stroke-linejoin="round"></path>
                <path d="M29,42 L29,46" id="Stroke-1205" stroke="#0096E6" stroke-width="2" stroke-linecap="round" stroke-linejoin="round"></path>
                <path d="M50,12 L50,37" id="Stroke-1242" stroke="#0096E6" stroke-width="2" stroke-linecap="round" stroke-linejoin="round"></path>
                <path d="M46,15 L50,15" id="Stroke-1243" stroke="#0096E6" stroke-width="2" stroke-linecap="round" stroke-linejoin="round"></path>
                <path d="M44,19 L50,19" id="Stroke-1244" stroke="#0096E6" stroke-width="2" stroke-linecap="round" stroke-linejoin="round"></path>
                <path d="M46,23 L50,23" id="Stroke-1245" stroke="#0096E6" stroke-width="2" stroke-linecap="round" stroke-linejoin="round"></path>
                <path d="M44,27 L50,27" id="Stroke-1246" stroke="#0096E6" stroke-width="2" stroke-linecap="round" stroke-linejoin="round"></path>
                <path d="M46,31 L50,31" id="Stroke-1247" stroke="#0096E6" stroke-width="2" stroke-linecap="round" stroke-linejoin="round"></path>
                <path d="M44,35 L50,35" id="Stroke-1248" stroke="#0096E6" stroke-width="2" stroke-linecap="round" stroke-linejoin="round"></path>
                <path d="M17,16 C17,17.657 15.657,19 14,19 C12.343,19 11,17.657 11,16 C11,14.343 12.343,13 14,13 C15.657,13 17,14.343 17,16" id="Fill-1249" fill="#D0E8F9"></path>
                <path d="M17,16 C17,17.657 15.657,19 14,19 C12.343,19 11,17.657 11,16 C11,14.343 12.343,13 14,13 C15.657,13 17,14.343 17,16 L17,16 Z" id="Stroke-1250" stroke="#0096E6" stroke-width="2" stroke-linecap="round" stroke-linejoin="round"></path>
                <path d="M33,16 C33,17.657 31.657,19 30,19 C28.343,19 27,17.657 27,16 C27,14.343 28.343,13 30,13 C31.657,13 33,14.343 33,16" id="Fill-1251" fill="#D0E8F9"></path>
                <path d="M33,16 C33,17.657 31.657,19 30,19 C28.343,19 27,17.657 27,16 C27,14.343 28.343,13 30,13 C31.657,13 33,14.343 33,16 L33,16 Z" id="Stroke-1252" stroke="#0096E6" stroke-width="2" stroke-linecap="round" stroke-linejoin="round"></path>
                <path d="M23,30 C23,31.657 21.657,33 20,33 C18.343,33 17,31.657 17,30 C17,28.343 18.343,27 20,27 C21.657,27 23,28.343 23,30" id="Fill-1253" fill="#D0E8F9"></path>
                <path d="M23,30 C23,31.657 21.657,33 20,33 C18.343,33 17,31.657 17,30 C17,28.343 18.343,27 20,27 C21.657,27 23,28.343 23,30 L23,30 Z" id="Stroke-1254" stroke="#0096E6" stroke-width="2" stroke-linecap="round" stroke-linejoin="round"></path>
                <path d="M15.1815,18.7568 L18.8185,27.2428 C19.1815,27.0878 19.5805,26.9998 20.0005,26.9998 C20.6505,26.9998 21.2485,27.2118 21.7405,27.5638 L28.2605,18.4358 C27.4995,17.8918 27.0005,17.0068 27.0005,15.9998 L17.0005,15.9998 C17.0005,17.2368 16.2505,18.2978 15.1815,18.7568 L15.1815,18.7568 Z" id="Stroke-1255" stroke="#0096E6" stroke-width="2" stroke-linecap="round" stroke-linejoin="round"></path>
            </g>
        </g>
    </g>
</svg>