<?xml version="1.0" encoding="UTF-8" standalone="no"?>
<svg width="58px" height="60px" viewBox="0 0 58 60" version="1.1" xmlns="http://www.w3.org/2000/svg" xmlns:xlink="http://www.w3.org/1999/xlink">
    <!-- Generator: Sketch 3.8.2 (29753) - http://www.bohemiancoding.com/sketch -->
    <title>41 -Boxes- (Webby)</title>
    <desc>Created with Sketch.</desc>
    <defs></defs>
    <g id="Page-1" stroke="none" stroke-width="1" fill="none" fill-rule="evenodd">
        <g id="Icons" transform="translate(-121.000000, -860.000000)">
            <g id="41--Boxes--(Webby)" transform="translate(122.000000, 861.000000)">
                <path d="M21,25 L21,24 L9,24 L9,25 L4,25 C1.791,25 0,26.791 0,29 L0,54 C0,56.209 1.791,58 4,58 L26,58 C28.209,58 30,56.209 30,54 L30,29 C30,26.791 28.209,25 26,25 L21,25 Z" id="Fill-44" fill="#FFFFFF"></path>
                <path d="M21,25 L21,24 L9,24 L9,25 L4,25 C1.791,25 0,26.791 0,29 L0,54 C0,56.209 1.791,58 4,58 L26,58 C28.209,58 30,56.209 30,54 L30,29 C30,26.791 28.209,25 26,25 L21,25 L21,25 Z" id="Stroke-45" stroke="#0096E6" stroke-width="2" stroke-linecap="round" stroke-linejoin="round"></path>
                <path d="M49,29 L49,28.019 L37,28.019 L37,29 L34,29 C31.791,29 30,30.791 30,33 L30,54 C30,56.209 31.791,58 34,58 L52,58 C54.209,58 56,56.209 56,54 L56,33 C56,30.791 54.209,29 52,29 L49,29 Z" id="Fill-46" fill="#FFFFFF"></path>
                <path d="M49,29 L49,28.019 L37,28.019 L37,29 L34,29 C31.791,29 30,30.791 30,33 L30,54 C30,56.209 31.791,58 34,58 L52,58 C54.209,58 56,56.209 56,54 L56,33 C56,30.791 54.209,29 52,29 L49,29 L49,29 Z" id="Stroke-47" stroke="#0096E6" stroke-width="2" stroke-linecap="round" stroke-linejoin="round"></path>
                <path d="M43,1 L34,1 L34,0 L22,0 L22,1 L13,1 C10.791,1 9,2.791 9,5 L9,24 L21,24 L21,25 L26,25 C28.209,25 30,26.791 30,29 L30,33 C30,30.791 31.791,29 34,29 L37,29 L37,28.019 L47,28.019 L47,5 C47,2.791 45.209,1 43,1" id="Fill-48" fill="#FFFFFF"></path>
                <path d="M43,1 L34,1 L34,0 L22,0 L22,1 L13,1 C10.791,1 9,2.791 9,5 L9,24 L21,24 L21,25 L26,25 C28.209,25 30,26.791 30,29 L30,33 C30,30.791 31.791,29 34,29 L37,29 L37,28.019 L47,28.019 L47,5 C47,2.791 45.209,1 43,1 L43,1 Z" id="Stroke-49" stroke="#0096E6" stroke-width="2" stroke-linecap="round" stroke-linejoin="round"></path>
                <path d="M32.5246,12.7705 L27.9996,8.9995 L23.4756,12.7705 C22.8896,13.2585 21.9996,12.8425 21.9996,12.0795 L21.9996,-0.0005 L33.9996,-0.0005 L33.9996,12.0795 C33.9996,12.8425 33.1106,13.2585 32.5246,12.7705" id="Fill-50" fill="#D0E8F9"></path>
                <path d="M32.5246,12.7705 L27.9996,8.9995 L23.4756,12.7705 C22.8896,13.2585 21.9996,12.8425 21.9996,12.0795 L21.9996,-0.0005 L33.9996,-0.0005 L33.9996,12.0795 C33.9996,12.8425 33.1106,13.2585 32.5246,12.7705 L32.5246,12.7705 Z" id="Stroke-51" stroke="#0096E6" stroke-width="2" stroke-linecap="round" stroke-linejoin="round"></path>
                <path d="M19.5246,36.7705 L14.9996,32.9995 L10.4756,36.7705 C9.8896,37.2585 8.9996,36.8425 8.9996,36.0795 L8.9996,23.9995 L20.9996,23.9995 L20.9996,36.0795 C20.9996,36.8425 20.1106,37.2585 19.5246,36.7705" id="Fill-52" fill="#D0E8F9"></path>
                <path d="M19.5246,36.7705 L14.9996,32.9995 L10.4756,36.7705 C9.8896,37.2585 8.9996,36.8425 8.9996,36.0795 L8.9996,23.9995 L20.9996,23.9995 L20.9996,36.0795 C20.9996,36.8425 20.1106,37.2585 19.5246,36.7705 L19.5246,36.7705 Z" id="Stroke-53" stroke="#0096E6" stroke-width="2" stroke-linecap="round" stroke-linejoin="round"></path>
                <path d="M47.5246,40.7898 L42.9996,37.0188 L38.4756,40.7898 C37.8896,41.2778 36.9996,40.8618 36.9996,40.0988 L36.9996,28.0188 L48.9996,28.0188 L48.9996,40.0988 C48.9996,40.8618 48.1106,41.2778 47.5246,40.7898" id="Fill-54" fill="#D0E8F9"></path>
                <path d="M47.5246,40.7898 L42.9996,37.0188 L38.4756,40.7898 C37.8896,41.2778 36.9996,40.8618 36.9996,40.0988 L36.9996,28.0188 L48.9996,28.0188 L48.9996,40.0988 C48.9996,40.8618 48.1106,41.2778 47.5246,40.7898 L47.5246,40.7898 Z" id="Stroke-55" stroke="#0096E6" stroke-width="2" stroke-linecap="round" stroke-linejoin="round"></path>
                <path d="M23,54 L26,54" id="Fill-56" fill="#FFFFFF"></path>
                <path d="M23,54 L26,54" id="Stroke-57" stroke="#0096E6" stroke-width="2" stroke-linecap="round" stroke-linejoin="round"></path>
                <path d="M21,50 L26,50" id="Fill-59" fill="#FFFFFF"></path>
                <path d="M21,50 L26,50" id="Stroke-60" stroke="#0096E6" stroke-width="2" stroke-linecap="round" stroke-linejoin="round"></path>
                <path d="M49,54 L52,54" id="Fill-62" fill="#FFFFFF"></path>
                <path d="M49,54 L52,54" id="Stroke-63" stroke="#0096E6" stroke-width="2" stroke-linecap="round" stroke-linejoin="round"></path>
                <path d="M47,50 L52,50" id="Fill-65" fill="#FFFFFF"></path>
                <path d="M47,50 L52,50" id="Stroke-66" stroke="#0096E6" stroke-width="2" stroke-linecap="round" stroke-linejoin="round"></path>
            </g>
        </g>
    </g>
</svg>